<?xml version="1.0" encoding="UTF-8" standalone="no"?>
<svg
   xmlns:dc="http://purl.org/dc/elements/1.1/"
   xmlns:cc="http://creativecommons.org/ns#"
   xmlns:rdf="http://www.w3.org/1999/02/22-rdf-syntax-ns#"
   xmlns:svg="http://www.w3.org/2000/svg"
   xmlns="http://www.w3.org/2000/svg"
   xmlns:sodipodi="http://sodipodi.sourceforge.net/DTD/sodipodi-0.dtd"
   xmlns:inkscape="http://www.inkscape.org/namespaces/inkscape"
   width="1000"
   height="322"
   viewBox="0 0 264.58333 85.195835"
   version="1.1"
   id="svg863"
   inkscape:version="1.0.1 (3bc2e813f5, 2020-09-07)"
   sodipodi:docname="celelogo.svg">
  <defs
     id="defs857">
    <clipPath
       clipPathUnits="userSpaceOnUse"
       id="clipPath6584">
      <rect
         style="opacity:1;fill:#0d6ab7;fill-opacity:0.456081;fill-rule:nonzero;stroke:none;stroke-width:6;stroke-linecap:round;stroke-linejoin:round;stroke-miterlimit:4;stroke-dasharray:none;stroke-dashoffset:0;stroke-opacity:1"
         id="rect6586"
         width="1965.7568"
         height="632.35547"
         x="-1495.0258"
         y="1426.1187" />
    </clipPath>
  </defs>
  <sodipodi:namedview
     id="base"
     pagecolor="#ffffff"
     bordercolor="#666666"
     borderopacity="1.0"
     inkscape:pageopacity="0.0"
     inkscape:pageshadow="2"
     inkscape:zoom="0.24748737"
     inkscape:cx="540.83261"
     inkscape:cy="639.29231"
     inkscape:document-units="px"
     inkscape:current-layer="layer1"
     inkscape:document-rotation="0"
     showgrid="false"
     units="px"
     inkscape:window-width="1366"
     inkscape:window-height="705"
     inkscape:window-x="-8"
     inkscape:window-y="-8"
     inkscape:window-maximized="1" />
  <metadata
     id="metadata860">
    <rdf:RDF>
      <cc:Work
         rdf:about="">
        <dc:format>image/svg+xml</dc:format>
        <dc:type
           rdf:resource="http://purl.org/dc/dcmitype/StillImage" />
        <dc:title></dc:title>
      </cc:Work>
    </rdf:RDF>
  </metadata>
  <g
     inkscape:label="Layer 1"
     inkscape:groupmode="layer"
     id="layer1">
    <path
       style="fill:#0d6ab7;fill-opacity:1;stroke-width:2.09681"
       d="m -1503.6714,1746.4979 v -326.7 h 995.10003 995.1 v 326.7 326.7 h -995.1 -995.10003 z m 1989.52518,0.075 -0.0752,-326.025 -994.425,-0.075 -994.42498,-0.075 v 326.1 326.1001 h 994.50013 994.50012 l -0.0751,-326.025 z m -1276.12515,297.825 v -7.2 h -41.85 -41.85 v -6.75 -6.75 h 41.85 41.85 v -6.9 -6.9 h 59.09475 59.09478 l 0.0802,7.425 0.0802,7.425 99.15,-0.093 c 54.5325,-0.051 276.4725,-0.2855 493.199999,-0.5212 216.727501,-0.2357 396.851251,-0.4302 400.275001,-0.4322 h 6.225 v -56.8114 -56.8114 l -3.375,-0.2042 c -26.10081,-1.5791 -51.98679,-11.0476 -75.225,-27.5155 -2.0625,-1.4616 -4.01373,-2.8612 -4.33605,-3.1102 -0.5673,-0.4382 -0.54288,-0.4982 0.76365,-1.875 0.74235,-0.7823 2.49108,-2.6269 3.88605,-4.0992 1.395,-1.4723 4.43628,-4.6448 6.75846,-7.05 3.66564,-3.7968 37.9038,-39.7052 44.6451,-46.8231 1.32828,-1.4025 4.16385,-4.3725 6.30123,-6.6 6.31278,-6.5789 8.87781,-9.2668 12.02403,-12.6 1.63533,-1.7325 4.40571,-4.635 6.15642,-6.45 1.75068,-1.815 6.13704,-6.405 9.74745,-10.2 7.5306,-7.9156 11.66295,-12.2372 16.78617,-17.5546 1.98963,-2.0651 5.97999,-6.2477 8.86749,-9.2946 2.8875,-3.047 6.48045,-6.8249 7.98432,-8.3954 7.584,-7.9198 10.10691,-10.7522 12.88254,-14.4626 6.60381,-8.8279 10.1196,-16.708 15.7014,-35.1928 3.55437,-11.7706 6.06684,-24.921 7.27929,-38.1 0.50721,-5.5131 0.50997,-22.1611 0.005,-27.6 -2.49723,-26.8748 -10.35606,-50.4526 -24.04869,-72.15 -6.52041,-10.3322 -15.47604,-21.1035 -24.45573,-29.4137 -10.11831,-9.364 -20.52657,-16.5957 -32.99772,-22.927 -15.20793,-7.7206 -30.39306,-12.2548 -48.45,-14.4668 -5.56215,-0.6813 -24.95364,-0.7727 -30.15,-0.142 -13.86441,1.6828 -23.12745,3.7139 -35.1,7.6963 -8.42553,2.8025 -14.46492,5.3131 -23.1,9.6027 -18.88368,9.3807 -25.37559,14.3889 -40.63842,31.3505 -1.70745,1.8975 -4.34064,4.8 -5.85153,6.45 -2.83878,3.1002 -9.49473,10.4007 -24.76005,27.1577 -4.8675,5.3432 -10.335,11.3215 -12.15,13.2852 -1.815,1.9637 -4.110001,4.4899 -5.100001,5.6138 -2.0796,2.3608 -11.8395,13.087 -15.15,16.6499 -1.2375,1.3319 -4.14,4.5048 -6.45,7.051 -2.31,2.5463 -5.0775,5.5815 -6.15,6.7449 -1.0725,1.1635 -3.7725,4.1278 -6,6.5874 -2.2275,2.4595 -7.88376,8.6655 -12.56949,13.791 -4.6857,5.1255 -9.7482,10.668 -11.25,12.3167 -1.50177,1.6487 -3.60801,3.9439 -4.68051,5.1004 -1.0725,1.1564 -4.37796,4.7849 -7.34547,8.0633 l -5.39547,5.9607 -1.44849,-1.611 c -5.73129,-6.3743 -11.9525704,-15.0293 -16.5762904,-23.061 -10.30962,-17.9083 -15.6905396,-36.4449 -16.2416096,-55.95 -0.47625,-16.8564 2.7327596,-32.5521 9.6615896,-47.256 5.25438,-11.1506 11.18871,-19.5302 20.0842204,-28.3601 12.70056,-12.607 28.42926,-21.2991 46.61715,-25.7619 8.76984,-2.1519 14.70807,-2.875 25.29786,-3.0806 6.81708,-0.1323 9.80952,-0.059 14.412451,0.3548 l 5.80908,0.5219 4.33752,-3.3365 c 10.24284,-7.8789 25.53294,-17.9822 36.05688,-23.8253 32.69301,-18.1521 63.22338,-27.8017 96.68067,-30.5576 9.61242,-0.7918 25.72812,-0.4292 36.75,0.8269 33.26442,3.7908 66.42792,17.2455 94.35,38.2784 37.34121,28.1282 65.04771,68.3613 78.33747,113.7553 7.77504,26.5573 10.27191,54.3264 7.28682,81.0407 -3.94164,35.2745 -17.08182,68.2454 -38.87481,97.5433 l -2.48688,3.3433 1.31835,4.0067 c 2.75859,8.3838 4.85277,18.5728 5.58315,27.1642 0.46827,5.5079 0.21399,18.7686 -0.45048,23.4925 -3.14118,22.3322 -11.99391,41.0927 -26.48175,56.1197 -15.17835,15.7433 -34.63164,25.3023 -57.27342,28.1433 l -4.15845,0.5218 -0.0757,63.8076 -0.0757,63.8076 h -506.24931 -506.24931 v 7.2 7.2 h -59.1 -59.1 v -7.2 z m 569.38941,-40.4661 c -8.1282,-1.7677 -13.7556,-6.6057 -16.76064,-14.4095 -1.24143,-3.2238 -1.86033,-6.4968 -2.04717,-10.8264 -0.35724,-8.2787 1.49616,-15.6998 5.16912,-20.6974 1.36254,-1.8539 4.78014,-5.0698 6.63069,-6.2393 7.12785,-4.5049 18.52002,-4.5155 26.13036,-0.024 2.22564,1.3134 6.26148,5.3412 7.54461,7.5295 2.68125,4.5728 3.92832,9.5754 4.41447,17.7086 l 0.21072,3.525 h -17.8908 c -16.84281,0 -17.89017,0.031 -17.8803,0.525 0.006,0.2888 0.19539,1.562 0.42141,2.8294 0.7602,4.2628 3.13914,7.5209 6.71559,9.1975 1.46967,0.689 2.09229,0.798 4.55253,0.7973 2.3643,0 3.06138,-0.1137 4.09035,-0.6634 1.83261,-0.979 3.09906,-2.392 4.10841,-4.5838 0.4944,-1.0736 0.9345,-1.9983 0.978,-2.0549 0.0781,-0.1017 13.68213,2.0792 13.8711,2.2238 0.24516,0.1875 -1.75779,4.3766 -2.8893,6.0429 -3.07203,4.5238 -7.14873,7.3726 -12.82701,8.9636 -2.80107,0.7848 -11.23587,0.8756 -14.54214,0.1566 z m 16.86153,-33.4839 c -0.34335,-5.2001 -2.87187,-9.1479 -6.81024,-10.633 -2.45622,-0.9261 -5.90496,-0.7742 -8.0907,0.3565 -3.13647,1.6226 -5.30538,4.8813 -5.9286,8.9078 -0.51198,3.3076 -1.4715,3.0381 10.49568,2.9476 l 10.43292,-0.079 -0.0991,-1.5 z m 53.94906,33.5787 c -0.9075,-0.2375 -2.7975,-0.9937 -4.2,-1.6806 -2.07786,-1.0175 -3.06381,-1.7621 -5.325,-4.0215 l -2.775,-2.7727 v 3.873 3.8731 h -6.45 -6.45 v -37.05 -37.05 h 7.05 7.05 v 13.2281 13.2281 l 2.14479,-1.9858 c 2.35371,-2.1791 5.77245,-4.0521 8.79324,-4.8174 0.98343,-0.2491 3.04926,-0.453 4.59078,-0.453 9.92064,0 17.81322,5.9602 20.85642,15.75 1.24545,4.0065 1.56057,6.5081 1.53057,12.15 -0.0315,5.9152 -0.642,9.6722 -2.24904,13.8393 -2.60028,6.7427 -8.58921,12.2571 -15.10479,13.9077 -2.24802,0.5695 -7.25283,0.5599 -9.46197,-0.018 z m 5.65542,-11.8291 c 4.65615,-2.4817 6.678,-7.2556 6.67269,-15.7552 -0.006,-8.9414 -2.21967,-13.9733 -7.16916,-16.2933 -1.49493,-0.7008 -2.08464,-0.8011 -4.70895,-0.8011 -2.72148,0 -3.16092,0.082 -4.73328,0.8777 -3.08145,1.5605 -5.27277,4.4998 -6.40671,8.5937 -0.41265,1.4898 -0.5316,3.0207 -0.52287,6.7286 0.0168,7.182 1.00671,10.7099 3.91116,13.9404 2.48808,2.7673 5.24406,3.9595 8.80932,3.8108 1.87953,-0.078 2.57412,-0.2629 4.1478,-1.1016 z m 113.205089,11.6937 c -5.61003,-1.4697 -9.6666,-5.3449 -11.27706,-10.7727 -0.59685,-2.0117 -0.63138,-6.4883 -0.0664,-8.6101 0.99861,-3.7503 4.02618,-7.5595 7.3452,-9.2414 2.62119,-1.3282 6.58935,-2.4787 13.54695,-3.9277 3.63564,-0.7572 7.7196,-1.74 9.07554,-2.184 l 2.46528,-0.8074 0.0897,-2.067 c 0.0751,-1.7307 -0.0371,-2.3261 -0.68982,-3.6602 -0.66858,-1.3665 -1.02279,-1.7126 -2.48967,-2.433 -1.61652,-0.7938 -1.93194,-0.8398 -5.76018,-0.8398 -3.93804,0 -4.09503,0.025 -5.67885,0.9 -1.21473,0.6712 -1.92021,1.3504 -2.775,2.6715 -0.63039,0.9743 -1.14615,1.9451 -1.14615,2.1573 0,0.2122 -0.14322,0.4743 -0.31827,0.5825 -0.17502,0.1082 -3.08943,-0.3138 -6.47643,-0.9377 l -6.15816,-1.1343 0.17391,-0.9196 c 0.0956,-0.5058 0.7953,-2.1823 1.55481,-3.7255 2.54577,-5.1728 6.41268,-8.2156 12.3561,-9.7226 2.33154,-0.5912 3.37317,-0.6632 9.51804,-0.6577 6.12549,0.01 7.19883,0.081 9.5622596,0.6743 4.81236,1.208 8.81535003,3.8504 10.48776,6.9232 1.72296,3.1656 1.80696,4.1164 1.87206,21.1886 0.066,17.3047 0.14769,18.2509 2.00037,23.175 l 1.04409,2.775 H 0.04966863 -6.9459114 l -0.64449,-2.1641 c -0.35448,-1.1902 -0.76713,-2.4866 -0.91707,-2.8809 l -0.27255,-0.7169 -1.13238,1.023 c -2.7218996,2.4591 -6.4510496,4.4801 -9.8888396,5.3593 -3.06462,0.7838 -8.36241,0.7713 -11.40957,-0.027 z m 14.99949,-10.4071 c 2.5518,-1.1942 4.22127,-2.7308 5.25606,-4.838 0.78495,-1.5984 0.83985,-1.9728 0.93438,-6.3713 l 0.1004096,-4.673 -4.9004096,1.1756 c -7.67895,1.8423 -10.59642,2.8036 -11.85057,3.9048 -3.98247,3.4966 -2.23221,9.8739 3.19818,11.653 0.41358,0.1355 1.7748,0.2062 3.02493,0.1572 1.7847,-0.07 2.69487,-0.2867 4.23702,-1.0083 z m 51.24,10.3116 c -7.49106,-2.2307 -13.31856,-8.7157 -15.47655,-17.2228 -2.13468,-8.4152 -1.37577,-19.3872 1.79736,-25.9844 2.85942,-5.945 8.30451,-10.3472 14.48841,-11.7135 2.72532,-0.6022 7.22619,-0.6135 9.55275,-0.024 3.02079,0.7653 6.43953,2.6383 8.79324,4.8174 l 2.14479,1.9858 v -13.2336 -13.2335 l 7.125,0.081 7.125,0.08 0.07617,36.975 0.0762,36.975 h -6.59247 -6.59247 l -0.08373,-3.8826 -0.0837,-3.8827 -1.24533,1.4783 c -2.82048,3.3479 -6.99909,6.0096 -11.0427,7.034 -2.70339,0.6849 -7.30824,0.5709 -10.06197,-0.2492 z m 13.89738,-11.3851 c 3.4902,-1.5979 5.98161,-5.206 6.96807,-10.0912 0.6375,-3.1571 0.47136,-10.844 -0.29553,-13.6715 -1.12608,-4.1519 -3.30582,-7.0436 -6.40383,-8.4957 -1.48404,-0.6955 -2.10147,-0.8043 -4.56609,-0.8043 -2.43762,0 -3.08886,0.1121 -4.50072,0.7744 -3.37332,1.5825 -5.75931,4.9324 -6.77964,9.5187 -0.39444,1.773 -0.46257,3.2529 -0.33894,7.363 0.21237,7.0605 0.99444,9.7555 3.70632,12.7717 2.4204,2.6921 4.78761,3.6861 8.37939,3.5186 1.48434,-0.069 2.62845,-0.3332 3.83097,-0.8837 z m 89.602621,11.6568 c -11.1342,-2.3302 -18.28407,-8.9761 -20.7282,-19.2671 -2.44314,-10.2869 -0.24951,-20.6954 5.87172,-27.8603 2.78145,-3.2557 7.94472,-6.3353 12.90648,-7.698 2.0592,-0.5655 3.1668,-0.6591 7.8,-0.6591 6.30864,0 8.41551,0.4308 12.90042,2.6381 8.23293,4.0518 13.48986,11.9557 14.55951,21.8905 0.61764,5.7367 -0.27636,11.1333 -2.68971,16.2364 -3.31074,7.0006 -9.01239,11.9072 -16.42797,14.1372 -2.28414,0.6869 -3.2928,0.8078 -7.44225,0.8925 -3.24717,0.066 -5.43084,-0.034 -6.75,-0.3102 z m 10.67571,-11.9927 c 3.59907,-1.6477 5.85441,-4.2733 7.23846,-8.4268 0.73302,-2.1997 0.79977,-2.8006 0.79977,-7.2 0,-4.4011 -0.0667,-5.0011 -0.80271,-7.2202 -1.77807,-5.3609 -5.80233,-8.7827 -10.96359,-9.3222 -6.44115,-0.6732 -12.18885,4.0034 -13.69437,11.1424 -0.567,2.6887 -0.56877,8.1056 -0.004,10.7737 1.17531,5.5479 4.88544,9.7687 9.63558,10.9617 2.08236,0.523 5.84844,0.1805 7.7904,-0.7086 z m -467.09172,-15.255 c -4.60128,-14.5595 -8.42628,-26.6405 -8.49999,-26.8468 -0.1047,-0.293 1.3767,-0.375 6.77691,-0.375 h 6.91089 l 0.27051,0.975 c 1.80864,6.5187 9.76389,34.1163 9.8169,34.0558 0.0853,-0.097 9.14079,-34.6429 9.14079,-34.871 0,-0.088 3.08454,-0.1598 6.85455,-0.1598 h 6.85458 l 4.26063,16.875 c 2.34336,9.2813 4.36131,17.1975 4.48437,17.5917 0.16761,0.5371 1.50378,-3.6748 5.32968,-16.8 l 5.10597,-17.5167 6.95511,-0.081 c 3.8253,-0.044 6.95511,0 6.95511,0.095 0,0.1489 -14.11566,44.2549 -16.38927,51.2102 l -0.75999,2.325 h -6.8037 -6.80367 l -4.46136,-16.725 c -2.45373,-9.1987 -4.55415,-16.901 -4.66758,-17.116 -0.11343,-0.2151 -2.22183,7.3102 -4.68534,16.7229 l -4.47909,17.1139 h -6.9 -6.9 l -8.36601,-26.4718 z m 234.189389,-0.2968 0.0766,-26.775 6.516,-0.081 6.516,-0.081 0.084,3.7717 0.084,3.7718 1.575,-2.2035 c 3.26121,-4.5626 5.7909,-6.2411 9.75192,-6.4708 2.83935,-0.1646 5.43462,0.3149 8.00058,1.4784 1.06515,0.483 1.98033,0.9218 2.03373,0.9752 0.094,0.094 -4.0305,11.9081 -4.2252,12.1028 -0.053,0.053 -1.00137,-0.3271 -2.10741,-0.8446 -4.95288,-2.3178 -9.51564,-1.0798 -11.57154,3.1397 -2.04084,4.1884 -2.40108,7.9587 -2.4045,25.1659 l -0.003,12.825 h -7.20162 -7.20159 l 0.0766,-26.775 z m 171.52662,-0.075 v -26.85 h 7.2 7.200001 v 26.85 26.85 h -7.200001 -7.2 z m -1405.800029,22.9443 c -22.5267,-1.2218 -46.0272,-4.3615 -66.3402,-8.8632 -40.1575,-8.8996 -71.7844,-28.3849 -89.8083,-55.3311 -9.5506,-14.2783 -14.9903,-29.2863 -16.7997,-46.35 -0.5836,-5.5034 -0.5815,-16.4726 0,-22.3136 2.9299,-29.2164 16.5749,-58.9171 40.0723,-87.2245 8.3592,-10.0704 19.7802,-21.232 31.1716,-30.4636 21.5771,-17.486 51.3323,-34.5909 79.266,-45.5663 5.5419,-2.1774 9.9703,-3.8449 14.034,-5.2845 50.1638,-17.7699 104.0042,-25.0162 154.35,-20.7737 49.3183,4.1558 90.2957,18.6582 115.65,40.9298 16.3019,14.3198 25.4775,30.2606 28.4042,49.3464 0.7912,5.1599 0.7098,15.2212 -0.1696,20.968 -3.2498,21.2368 -14.8659,43.2006 -34.0088,64.3042 -4.3678,4.8152 -5.0612,5.4983 -9.6933,9.5507 -5.7595,5.0386 -6.3534,5.549 -7.5396,6.4793 -0.5945,0.4663 -2.0588,1.6578 -3.2541,2.6478 -21.1178,17.492 -48.6621,33.9756 -75.2888,45.0557 -21.0677,8.7668 -48.1047,17.1231 -65.8487,20.3519 -16.9244,3.0796 -31.5932,4.5414 -48.6013,4.8433 -32.8095,0.5823 -61.1455,-4.6681 -82.95,-15.3698 -5.3934,-2.6471 -8.4343,-4.4393 -13.0989,-7.7201 -4.5299,-3.1861 -6.2958,-4.6857 -10.2492,-8.7035 -14.9839,-15.2279 -19.4963,-34.3129 -13.2466,-56.0258 4.1913,-14.5618 13.7021,-30.8054 27.2153,-46.4817 3.5041,-4.065 10.7457,-11.8253 13.5775,-14.55 4.4221,-4.2549 6.2641,-5.8256 10.9519,-9.3382 19.8303,-14.8594 42.9039,-26.8763 67.3604,-35.0817 38.3531,-12.8679 75.1291,-14.3907 105.1396,-4.3537 13.8187,4.6217 27.2787,12.2349 34.0594,19.2647 7.4366,7.7097 11.7848,15.6149 13.8427,25.1661 0.7568,3.5125 0.7564,13.5599 0,17.6928 -1.6621,9.073 -5.0857,18.5175 -11.0922,30.6 l -2.7591,5.55 -55.5,0.1813 c -30.525,0.1 -67.1281,0.2009 -81.3402,0.225 l -25.8402,0.044 -1.5033,3.525 c -3.7135,8.7071 -6.0664,16.1614 -7.4572,23.625 -0.4432,2.3782 -0.5548,4.368 -0.5387,9.6 0.018,5.8167 0.098,6.8848 0.6765,9 3.4937,12.7793 12.6488,20.2478 28.8732,23.5541 5.6782,1.1571 10.5622,1.57 18.5799,1.5706 7.9297,0 11.9836,-0.2578 20.4,-1.3004 25.144,-3.1148 57.0742,-12.2242 81.15,-23.1512 5.9273,-2.6901 18.3099,-10.9202 27.15,-18.0453 8.5455,-6.8876 16.9951,-15.3416 23.1377,-23.1498 10.4431,-13.2748 17.0047,-27.6741 19.3617,-42.4889 0.7632,-4.7967 0.7668,-16.151 0.01,-20.7891 -6.1785,-37.7011 -40.498,-66.0116 -89.8209,-74.0942 -15.6596,-2.5662 -34.1474,-2.9975 -51.3852,-1.1988 -27.4552,2.8649 -56.3683,10.8724 -85.5,23.6793 -15.0108,6.5991 -35.7649,17.7009 -47.8083,25.5737 -27.7084,18.113 -49.9872,42.4051 -63.3202,69.0425 -6.8672,13.7198 -11.0041,27.7005 -12.2025,41.2386 -0.4321,4.8814 -0.1884,14.7549 0.4716,19.1089 3.3291,21.9617 15.4876,40.2854 35.7285,53.8454 25.9977,17.4165 65.8322,26.8803 113.5309,26.9724 22.9588,0.044 41.0121,-1.7536 63,-6.2745 35.4956,-7.2981 72.6955,-22.5739 102.264,-41.994 l 3.1141,-2.0453 7.0859,-0.3959 c 10.8213,-0.6047 26.1601,-1.594 27.336,-1.7631 1.0383,-0.1493 1.0227,-0.125 -1.397,2.177 -4.0312,3.8351 -9.4369,8.8263 -11.3538,10.4831 -0.9895,0.8553 -2.1367,1.8497 -2.5492,2.2098 -0.4125,0.36 -2.64,2.1689 -4.95,4.0196 -13.2392,10.6071 -24.033,17.8793 -38.85,26.1745 -35.0693,19.6334 -76.4682,32.2065 -120.3,36.5358 -11.8202,1.1675 -17.0778,1.4037 -33.45,1.5023 -9.075,0.055 -18.5925,-0.014 -21.15,-0.1528 z m 115.5758,-180.8193 c 5.3534,-11.2816 8.4859,-20.9884 9.5403,-29.5631 0.4526,-3.6804 0.2148,-10.185 -0.4682,-12.8119 -3.455,-13.287 -16.6922,-18.0739 -35.2479,-12.7465 -23.2626,6.6788 -46.4737,27.1491 -55.9535,49.3465 -1.2692,2.9719 -3.1465,8.2694 -3.1465,8.879 0,0.3593 6.126,0.421 41.8015,0.421 h 41.8016 z m 647.32423,145.1093 c -11.40015,-0.7465 -24.07965,-2.3505 -31.96461,-4.0435 -22.04916,-4.7344 -34.40337,-12.7791 -37.53339,-24.4408 -0.63768,-2.3758 -0.70635,-8.0118 -0.12975,-10.65 1.31238,-6.0048 4.242,-12.3902 7.57026,-16.5 12.12687,-14.9745 30.51294,-25.387 57.40749,-32.5111 l 3.3,-0.8742 -1.5,-0.6615 c -9.15372,-4.0372 -14.52699,-8.1499 -16.72764,-12.8033 -1.71033,-3.6166 -1.49166,-8.1098 0.59562,-12.2371 3.28431,-6.4942 11.38878,-13.9648 23.03202,-21.2306 9.82146,-6.1289 22.90356,-12.5268 33.07788,-16.1769 1.93716,-0.6949 3.63066,-1.3545 3.76335,-1.4656 0.13266,-0.1112 -0.81234,-0.3705 -2.1,-0.5762 -3.20988,-0.5128 -10.1427,-2.2732 -13.26315,-3.3679 -10.84866,-3.8055 -18.38637,-10.218 -22.98645,-19.5551 -1.99008,-4.0393 -2.54559,-6.4429 -2.74818,-11.8905 -0.39891,-10.7265 3.46443,-20.9772 11.58255,-30.7323 10.53093,-12.6545 28.00566,-23.9256 47.46399,-30.6141 9.74706,-3.3503 32.49411,-7.0205 57.56001,-9.287 28.61415,-2.5874 59.4735,-3.2547 120.1584,-2.5984 l 16.8084,0.1818 -3.4083,8.625 -3.4083,8.625 -3.6501,-0.018 c -2.00757,-0.01 -11.4126,-0.2591 -20.9001,-0.5533 -9.4875,-0.2942 -17.30262,-0.4921 -17.36694,-0.4397 -0.0643,0.052 0.10818,0.4027 0.38334,0.7783 6.51141,8.8904 8.99022,15.6317 8.96571,24.3831 -0.0398,14.1896 -8.69976,28.9006 -24.25455,41.202 -17.69682,13.9954 -34.17777,21.8812 -53.97756,25.827 -11.7837,2.3484 -23.69919,3.3601 -44.4,3.7701 -19.52787,0.3868 -29.37747,0.7726 -31.17504,1.2212 -2.22813,0.556 -4.44378,1.8153 -6.1335,3.4859 -3.0195,2.9854 -4.33566,5.9071 -4.3698,9.7001 -0.0192,2.1362 0.0886,2.6303 0.96057,4.4015 1.78797,3.6319 5.54079,6.2481 10.65297,7.4264 5.8977,1.3594 13.80039,1.7843 39.3648,2.1163 25.56633,0.3321 32.44425,0.7401 42.90711,2.5454 10.63602,1.8352 20.70384,5.3838 26.72808,9.4208 2.21742,1.4859 5.73537,5.126 7.31286,7.5667 5.6679,8.7693 5.1633,20.1324 -1.47393,33.1915 -2.62035,5.1558 -4.6761,8.4319 -8.41812,13.4155 -5.52444,7.3574 -6.90048,8.6554 -16.206,15.2863 -15.28461,10.8916 -32.98716,19.7495 -54.83721,27.4391 -16.61151,5.8461 -39.04974,10.3376 -61.71279,12.353 -4.68972,0.4171 -29.73,0.6073 -34.95,0.2655 z m 46.65,-15.1397 c 13.45395,-1.5452 26.38185,-5.2847 37.35,-10.8038 4.74033,-2.3853 8.7336,-5.5287 15.01464,-11.8192 7.15263,-7.1633 11.37891,-13.2578 13.53741,-19.5216 0.91047,-2.6421 0.98262,-3.1345 0.98922,-6.75 0.008,-4.5751 -0.45579,-6.1973 -2.7261,-9.5273 -1.72239,-2.5264 -3.66795,-4.2915 -6.84603,-6.2111 -12.41796,-7.5008 -32.52294,-9.843 -59.11914,-6.8872 -10.41291,1.1572 -19.3014,2.7268 -24.70671,4.3626 -16.14864,4.8872 -31.36407,14.5094 -38.8257,24.5531 -4.26114,5.7358 -5.96805,11.5406 -4.89888,16.6599 1.61742,7.7444 8.0811,14.2897 19.83129,20.0816 3.42837,1.69 4.99917,2.2665 8.55,3.1381 6.41625,1.575 14.23953,2.7847 21.3,3.2936 3.50394,0.2526 16.5408,-0.1082 20.55,-0.5687 z m 51.05148,-148.4933 c 5.37033,-0.871 10.62849,-3.0039 15.38559,-6.2411 1.24461,-0.847 4.16088,-3.4345 6.48057,-5.7501 17.26401,-17.2332 27.55926,-38.0736 26.73879,-54.1264 -0.43587,-8.5278 -3.37083,-14.4324 -8.97405,-18.0539 -8.69268,-5.6183 -21.88812,-2.8946 -36.58386,7.5514 -3.41409,2.4268 -6.78867,6.0659 -11.79423,12.7188 -9.68904,12.8777 -16.1172,25.4544 -18.50595,36.2068 -0.90156,4.0583 -0.98397,11.0522 -0.16515,14.0215 1.93272,7.0091 7.76238,12.7074 14.01681,13.7011 3.23493,0.5139 10.14897,0.4994 13.40148,-0.028 z m -593.04181,159.235 c 0.6179,-1.45 25.2134,-59.4541 54.65693,-128.8982 l 53.5334,-126.2618 2.85,0.1841 c 8.7518,0.5652 24.9861,0.8408 43.9519,0.746 l 21.2981,-0.1064 -5.20338,12.9 c -2.86188,7.095 -5.27814,13.1526 -5.36952,13.4614 -0.15924,0.5382 1.33341,-0.4944 12.9729,-8.9744 5.32521,-3.8796 7.67811,-5.3942 11.57604,-7.4516 9.58419,-5.0585 22.77432,-9.4861 34.97103,-11.7387 25.19085,-4.6526 48.79884,-2.7158 65.69355,5.3894 14.15505,6.7908 22.69599,17.1731 25.80135,31.3639 0.46602,2.1295 0.55788,3.8609 0.5571,10.5 0,8.8274 -0.26754,11.1944 -2.11524,18.7834 -8.09976,33.2687 -37.04364,67.5937 -76.48383,90.7035 -5.54985,3.2519 -17.44752,9.0986 -23.2242,11.4127 -12.58176,5.0403 -24.92334,8.2273 -36.68433,9.4734 -5.75616,0.6099 -16.44228,0.452 -21.39147,-0.3161 -17.4917,-2.7144 -31.3415,-11.4804 -40.0843,-25.3709 l -1.6842,-2.6759 -1.0388,2.3199 c -0.5713,1.276 -11.4146,25.9176 -24.0962,54.759 l -23.0574,52.439 -9.9195,-0.239 c -11.67433,-0.2813 -47.52273,-0.2608 -54.07643,0.031 l -4.5568,0.2028 1.1233,-2.6363 z m 166.39033,-107.031 c 11.76384,-2.4416 25.34262,-11.0116 38.9862,-24.6053 10.78662,-10.7472 20.08563,-22.833 25.96779,-33.75 0.93348,-1.7325 2.60109,-4.635 3.70578,-6.45 10.24629,-16.8345 13.41918,-35.7348 8.1648,-48.6361 -1.33041,-3.2666 -2.90712,-5.6056 -5.5452,-8.2261 -2.12253,-2.1084 -3.09006,-2.8151 -5.46282,-3.9905 -4.25517,-2.1077 -7.45908,-2.7024 -13.46655,-2.4994 -8.03934,0.2715 -15.0972,2.3411 -25.13886,7.3715 -6.58272,3.2976 -12.97914,8.426 -21.97266,17.6168 -12.88138,13.1639 -23.66218,27.9562 -30.91188,42.4138 -5.4073,10.7834 -8.0907,19.3176 -8.999,28.6203 -0.6336,6.4884 0.4595,12.8287 3.164,18.3532 1.1042,2.2554 1.8011,3.1934 4.0548,5.4579 4.7912,4.8141 9.6503,7.4887 15.7061,8.6452 2.703,0.5162 8.47243,0.3584 11.7475,-0.3213 z m 856.958819,90.2197 c 0.005,-0.1237 1.53588,-3.465 3.40233,-7.425 l 3.39348,-7.2 7.89057,-0.08 7.8905396,-0.08 -1.30785,1.43 c -0.71931,0.7866 -3.86376,4.1639 -6.9876896,7.5051 l -5.67981,6.075 h -4.30521 c -2.36784,0 -4.30122,-0.1012 -4.29636,-0.225 z m 115.09656,-0.2696 c -0.11295,-0.113 -0.20538,-3.0854 -0.20538,-6.6054 v -6.4 h 7.20585 7.205851 l -0.0808,6.525 -0.0808,6.525 -6.919621,0.08 c -3.80577,0.044 -7.01202,-0.012 -7.125,-0.125 z m -331.518419,-61.0151 c -12.85203,-0.7648 -23.79177,-2.8098 -35.58696,-6.6525 -11.90109,-3.8772 -19.36134,-7.4754 -26.54796,-12.8043 -3.66621,-2.7185 -8.70252,-7.7541 -11.03049,-11.0289 -11.85288,-16.6736 -11.3874,-38.6303 1.39041,-65.5857 3.04134,-6.4159 10.05963,-16.7316 17.29875,-25.4263 3.87996,-4.6601 13.10967,-13.9152 17.68929,-17.7381 10.61181,-8.8582 21.31515,-15.8552 33.6,-21.965 15.35193,-7.6353 31.61709,-13.0881 49.78995,-16.692 12.09768,-2.3991 22.74321,-3.5425 35.41005,-3.8032 27.37407,-0.5634 51.36264,4.3508 72.356819,14.8228 8.74845,4.3637 14.19849,8.2729 18.40179,13.1991 11.13003,13.0444 13.24116,30.7641 6.1794,51.8663 -5.52444,16.5083 -17.78481,35.203 -30.12549,45.9356 -1.66443,1.4476 -4.18191,3.6996 -5.594369,5.0046 -14.60985,13.4981 -33.33261,25.1948 -54.92643,34.3144 -20.46408,8.6424 -44.45754,14.5317 -66.14268,16.235 -5.8221,0.4573 -17.10306,0.6193 -22.16208,0.3182 z m 23.96304,-20.2361 c 6.27456,-0.9439 10.52211,-2.1902 16.65,-4.8852 16.89486,-7.4303 30.30183,-20.1192 44.10282,-41.7407 6.71196,-10.5153 14.51331,-24.8093 18.43545,-33.7783 9.0243,-20.6363 11.6214,-37.0356 7.57242,-47.8152 -1.19991,-3.1945 -3.2865,-6.3955 -5.46942,-8.3906 -1.96722,-1.7979 -7.89618,-4.815 -11.25234,-5.7259 -7.83351,-2.1263 -16.54137,-1.9873 -25.87161,0.4128 -5.28102,1.3586 -8.18202,2.4475 -13.56732,5.0927 -10.88517,5.3467 -18.63168,11.976 -27.04104,23.1412 -14.32665,19.0217 -27.18228,44.3218 -33.26526,65.4666 -5.66517,19.6925 -4.85547,34.2483 2.33412,41.9608 3.57423,3.8342 7.99944,5.9144 14.29386,6.7192 2.63721,0.3371 9.36,0.102 13.07832,-0.4574 z m 391.2,14.2208 c -17.98284,-1.6076 -47.86254,-2.4534 -64.02459,-1.8123 -4.68852,0.186 -8.550691,0.3042 -8.582581,0.2627 -0.03192,-0.041 9.989911,-23.9704 22.270681,-53.1754 17.50077,-41.6187 22.45749,-53.6838 22.92447,-55.8 0.74925,-3.3953 1.05063,-9.7699 0.59865,-12.6615 -0.82722,-5.2921 -2.72313,-9.2673 -6.15573,-12.9071 -7.11627,-7.5457 -18.97023,-10.3965 -32.15832,-7.7339 -5.03802,1.0171 -8.382841,2.1621 -13.172581,4.5094 -11.03259,5.4065 -22.2135,14.8701 -28.25709,23.9169 -1.07664,1.6117 -2.72982,4.7082 -3.68376,6.9 -2.13612,4.908 -47.76396,108.0633 -47.81925,108.1097 -0.0219,0.018 -1.7274,-0.074 -3.7899004,-0.2045 -19.9590596,-1.2661 -47.8207196,-1.2651 -63.1499996,0 -1.485,0.1228 -2.73999,0.1935 -2.78889,0.1571 -0.0489,-0.036 2.62968,-6.5285 5.95236,-14.4271 3.32268,-7.8986 12.79431,-30.5612 21.04809,-50.3612 19.9680296,-47.9013 26.7751196,-63.9724 41.97678,-99.1046 l 2.51166,-5.8047 2.55,0.1704 c 13.07754,0.8738 37.50477,0.9444 57.09711,0.1652 4.59093,-0.1826 8.40606,-0.2731 8.47812,-0.201 0.07203,0.072 -2.02569,5.3768 -4.66158,11.7884 -2.63592,6.4116 -4.75902,11.691 -4.71801,11.732 0.04101,0.041 3.24252,-1.6843 7.11447,-3.8341 8.89347,-4.9378 16.61952,-8.7345 22.189891,-10.9045 2.3925,-0.9321 5.7675,-2.2798 7.5,-2.995 12.9564,-5.3488 27.14643,-8.9927 42.3,-10.8624 6.19806,-0.7648 21.42351,-0.7703 26.55,-0.01 18.85425,2.7977 30.82626,10.404 37.37832,23.7478 2.02359,4.1212 2.49363,6.0727 2.9865,12.3988 1.23906,15.9035 -3.74577,39.104 -14.54544,67.698 -3.87891,10.27 -7.38495,18.7941 -15.92376,38.7153 -7.28472,16.9954 -11.69712,27.715 -12.87342,31.275 -0.59184,1.7912 -0.18345,1.6915 -5.1222,1.25 z m -831.9,-1.1848 c -19.77399,-1.2816 -46.2894,-1.3195 -63.27147,-0.09 -1.56852,0.1135 -2.60769,0.081 -2.517,-0.078 0.085,-0.1494 12.62583,-29.8868 27.86859,-66.0833 l 27.71406,-65.8116 3.90291,0.1977 c 16.51509,0.8369 39.90111,1.0257 56.81169,0.4587 5.17485,-0.1736 9.45903,-0.2653 9.52041,-0.2039 0.0614,0.061 -12.22668,29.7349 -27.30684,65.9412 -27.1851,65.2694 -27.42567,65.8299 -28.27038,65.8664 -0.4686,0.02 -2.47197,-0.068 -4.45197,-0.1966 z m 25.52742,-145.819 c -14.12343,-1.1632 -24.45237,-6.8052 -26.90904,-14.6985 -0.77928,-2.5038 -0.75816,-6.3472 0.051,-9.2787 1.29618,-4.6959 4.85025,-10.5352 9.45255,-15.5306 1.64886,-1.7896 3.30786,-3.1594 5.91915,-4.8872 19.30908,-12.7759 43.98819,-14.1279 62.20323,-3.4078 2.0973,1.2343 3.16647,2.0962 4.18053,3.37 2.76714,3.4761 4.02516,6.8508 4.02516,10.7978 0,6.1219 -2.99175,12.0358 -9.3,18.3835 -3.44853,3.4702 -7.04535,6.0464 -11.68734,8.3709 -10.75464,5.3857 -24.91089,7.9533 -37.93524,6.8806 z"
       id="path6554"
       inkscape:connector-curvature="0"
       clip-path="url(#clipPath6584)"
       transform="matrix(0.13459638,0,0,0.13459638,201.22504,-191.9504)" />
  </g>
</svg>
