<?xml version="1.0" encoding="UTF-8" standalone="no"?>
<svg
   xmlns:dc="http://purl.org/dc/elements/1.1/"
   xmlns:cc="http://creativecommons.org/ns#"
   xmlns:rdf="http://www.w3.org/1999/02/22-rdf-syntax-ns#"
   xmlns:svg="http://www.w3.org/2000/svg"
   xmlns="http://www.w3.org/2000/svg"
   xmlns:sodipodi="http://sodipodi.sourceforge.net/DTD/sodipodi-0.dtd"
   xmlns:inkscape="http://www.inkscape.org/namespaces/inkscape"
   width="500"
   height="500"
   viewBox="0 0 500 500.00002"
   version="1.1"
   id="svg1439"
   sodipodi:docname="epicon.svg"
   inkscape:version="1.0.1 (3bc2e813f5, 2020-09-07)">
  <sodipodi:namedview
     pagecolor="#ffffff"
     bordercolor="#666666"
     borderopacity="1"
     objecttolerance="10"
     gridtolerance="10"
     guidetolerance="10"
     inkscape:pageopacity="0"
     inkscape:pageshadow="2"
     inkscape:window-width="1366"
     inkscape:window-height="705"
     id="namedview11"
     showgrid="false"
     inkscape:zoom="0.992"
     inkscape:cx="250"
     inkscape:cy="169.35484"
     inkscape:window-x="-8"
     inkscape:window-y="-8"
     inkscape:window-maximized="1"
     inkscape:current-layer="svg1439" />
  <defs
     id="defs1433">
    <clipPath
       clipPathUnits="userSpaceOnUse"
       id="clipPath4790">
      <path
         d="m -616.00432,-56.260437 a 3.3392496,3.3392496 0 0 1 -3.32826,3.339232 3.3392496,3.3392496 0 0 1 -3.35016,-3.31726 3.3392496,3.3392496 0 0 1 3.30622,-3.361059 3.3392496,3.3392496 0 0 1 3.37191,3.295144 l -3.33896,0.04394 z"
         id="path4792"
         style="opacity:1;fill:#ffffff;fill-opacity:1;fill-rule:nonzero;stroke:none;stroke-width:1;stroke-linecap:round;stroke-linejoin:round;stroke-miterlimit:4;stroke-dasharray:none;stroke-dashoffset:0;stroke-opacity:1" />
    </clipPath>
  </defs>
  <metadata
     id="metadata1436">
    <rdf:RDF>
      <cc:Work
         rdf:about="">
        <dc:format>image/svg+xml</dc:format>
        <dc:type
           rdf:resource="http://purl.org/dc/dcmitype/StillImage" />
        <dc:title></dc:title>
      </cc:Work>
    </rdf:RDF>
  </metadata>
  <g
     id="layer1">
    <g
       id="g1416"
       style="fill:#000000;fill-opacity:1;stroke:#000000;stroke-width:0.0758333;stroke-opacity:1"
       transform="matrix(37.433527,0,0,37.433544,23296.389,2034.0497)">
      <path
         id="path4140"
         d="m -614.25326,-51.504372 c 0.11238,3.74e-4 0.22361,0.0033 0.33352,0.009 2.07779,0.107372 3.5003,0.908868 3.72797,2.100437 0.14569,0.762479 -0.30594,1.69323 -1.18688,2.446067 -1.34504,1.149439 -3.24374,1.811956 -4.9664,1.732843 -1.19434,-0.05485 -2.03576,-0.426366 -2.3821,-1.051641 -0.11232,-0.202797 -0.1254,-0.264782 -0.12359,-0.586657 0.002,-0.27209 0.0257,-0.419865 0.0992,-0.605645 0.21713,-0.549331 0.83251,-1.281127 1.38768,-1.650206 1.40118,-0.931495 3.08717,-1.188673 4.20037,-0.64071 0.83005,0.408578 1.02615,1.043893 0.60201,1.950249 l -0.12537,0.267956 -1.93796,0.01105 -1.93796,0.01098 -0.0948,0.296404 c -0.19477,0.608633 -0.0966,0.998546 0.30309,1.20388 0.19899,0.102216 0.24736,0.108558 0.80454,0.105064 0.68099,-0.0043 1.18033,-0.105442 1.94781,-0.394654 1.07006,-0.403234 1.88503,-1.272861 2.02198,-2.157601 0.14277,-0.922361 -0.55272,-1.789059 -1.70506,-2.124852 -0.45391,-0.132267 -1.44854,-0.163205 -2.02053,-0.06285 -0.91788,0.161034 -2.18444,0.692825 -2.93191,1.231007 -1.44335,1.039214 -2.01904,2.656926 -1.31147,3.685342 0.50211,0.729786 1.72443,1.162222 3.27933,1.160213 1.29579,-0.0017 2.58284,-0.362168 3.70515,-1.037813 0.205,-0.123415 0.28248,-0.143835 0.64574,-0.1705 0.22703,-0.01667 0.41278,-0.01916 0.41278,-0.0055 0,0.01367 -0.1572,0.156164 -0.34933,0.31665 -1.17762,0.98364 -2.45514,1.480617 -4.15578,1.616597 -0.59897,0.04789 -0.64214,0.04777 -1.31318,-0.0037 -1.86854,-0.143323 -3.01785,-0.703307 -3.55973,-1.734497 -0.71401,-1.358763 2.2e-4,-3.180095 1.73497,-4.424304 1.27534,-0.914696 3.21013,-1.49813 4.89594,-1.492609 z m -0.36284,2.033018 c -0.34054,0.0032 -0.78884,0.201534 -1.16405,0.563765 -0.26504,0.255867 -0.45953,0.539298 -0.53003,0.772373 l -0.0288,0.09527 h 0.99243 0.99236 l 0.11605,-0.264648 c 0.12941,-0.295121 0.18157,-0.709994 0.11182,-0.889214 -0.0742,-0.190584 -0.25673,-0.279726 -0.48974,-0.277549 z"
         style="opacity:1;fill:#0d6ab7;fill-opacity:1;fill-rule:nonzero;stroke:none;stroke-width:0.142984;stroke-linecap:round;stroke-linejoin:round;stroke-miterlimit:4;stroke-dasharray:none;stroke-dashoffset:0;stroke-opacity:1"
         sodipodi:nodetypes="ccccsccccccccccccsccccccscsccccccccccccccccc" />
    </g>
  </g>
</svg>
