<?xml version="1.0" encoding="UTF-8" standalone="no"?>
<svg
   xmlns:dc="http://purl.org/dc/elements/1.1/"
   xmlns:cc="http://creativecommons.org/ns#"
   xmlns:rdf="http://www.w3.org/1999/02/22-rdf-syntax-ns#"
   xmlns:svg="http://www.w3.org/2000/svg"
   xmlns="http://www.w3.org/2000/svg"
   xmlns:sodipodi="http://sodipodi.sourceforge.net/DTD/sodipodi-0.dtd"
   xmlns:inkscape="http://www.inkscape.org/namespaces/inkscape"
   viewBox="0 0 500.00001 96.799005"
   width="500"
   height="96.799004"
   version="1.1"
   id="svg20"
   sodipodi:docname="facebook.svg"
   inkscape:version="1.0.1 (3bc2e813f5, 2020-09-07)">
  <metadata
     id="metadata26">
    <rdf:RDF>
      <cc:Work
         rdf:about="">
        <dc:format>image/svg+xml</dc:format>
        <dc:type
           rdf:resource="http://purl.org/dc/dcmitype/StillImage" />
        <dc:title></dc:title>
      </cc:Work>
    </rdf:RDF>
  </metadata>
  <defs
     id="defs24" />
  <sodipodi:namedview
     pagecolor="#ffffff"
     bordercolor="#666666"
     borderopacity="1"
     objecttolerance="10"
     gridtolerance="10"
     guidetolerance="10"
     inkscape:pageopacity="0"
     inkscape:pageshadow="2"
     inkscape:window-width="1280"
     inkscape:window-height="961"
     id="namedview22"
     showgrid="false"
     inkscape:zoom="8.6896686"
     inkscape:cx="31.362898"
     inkscape:cy="11.588411"
     inkscape:window-x="1358"
     inkscape:window-y="-8"
     inkscape:window-maximized="1"
     inkscape:current-layer="svg20" />
  <g
     transform="matrix(0.61002495,0,0,0.61002495,-78.972002,-135.66626)"
     id="g18"
     style="stroke-width:0.124975;fill:#ffffff">
    <path
       class="cls-1"
       d="m 193.587,247.245 c -9.65,0 -12.44,4.28 -12.44,13.72 v 15.66 h 25.74 l -2.58,25.3 h -23.15 v 76.78 h -30.89 v -76.78 h -20.81 v -25.3 h 20.81 v -15.23 c 0,-25.52 10.29,-39 39,-39 6.016,-0.014 12.028,0.343 18,1.07 v 23.81 z"
       style="fill:#ffffff;stroke-width:0.124975"
       id="path2" />
    <path
       class="cls-1"
       d="m 209.027,324.445 c 0,-28.52 13.51,-50 41.82,-50 15.44,0 24.87,7.94 29.38,17.8 v -15.62 h 29.59 v 102.08 h -29.59 v -15.44 c -4.29,9.87 -13.94,17.59 -29.38,17.59 -28.31,0 -41.82,-21.45 -41.82,-50 z m 30.88,6.87 c 0,15.22 5.57,25.3 19.94,25.3 12.66,0 19.09,-9.22 19.09,-23.8 v -10.25 c 0,-14.58 -6.43,-23.8 -19.09,-23.8 -14.37,0 -19.94,10.08 -19.94,25.3 z"
       style="fill:#ffffff;stroke-width:0.124975"
       id="path4" />
    <path
       class="cls-1"
       d="m 374.157,274.475 c 12,0 23.37,2.58 29.59,6.86 l -6.86,21.88 c -6.434,-3.064 -13.464,-4.676 -20.59,-4.72 -16.73,0 -24,9.65 -24,26.17 v 6 c 0,16.52 7.29,26.17 24,26.17 7.126,-0.045 14.156,-1.656 20.59,-4.72 l 6.86,21.87 c -6.22,4.29 -17.58,6.87 -29.59,6.87 -36.25,0 -52.76,-19.52 -52.76,-50.83 v -4.72 c 0,-31.31 16.51,-50.83 52.76,-50.83 z"
       style="fill:#ffffff;stroke-width:0.124975"
       id="path6" />
    <path
       class="cls-1"
       d="m 407.817,331.565 v -9 c 0,-28.95 16.51,-48 50.19,-48 31.74,0 45.68,19.3 45.68,47.61 v 16.3 h -65 c 0.65,13.94 6.87,20.16 24,20.16 11.59,0 23.81,-2.36 32.82,-6.22 l 5.65,21.15 c -8.15,4.3 -24.88,7.51 -39.67,7.51 -39.09,-0.01 -53.67,-19.51 -53.67,-49.51 z m 30.88,-13.3 h 37.32 v -2.57 c 0,-11.15 -4.5,-20 -18,-20 -13.95,0.01 -19.32,8.81 -19.32,22.53 z"
       style="fill:#ffffff;stroke-width:0.124975"
       id="path8" />
    <path
       class="cls-1"
       d="m 618.157,330.885 c 0,28.52 -13.72,50 -42,50 -15.44,0 -26.16,-7.72 -30.45,-17.59 v 15.44 h -29.16 v -153.37 l 30.88,-2.8 v 68.2 c 4.5,-9 14.37,-16.3 28.74,-16.3 28.31,0 42,21.45 42,50 z m -30.88,-7.08 c 0,-14.37 -5.57,-25.09 -20.37,-25.09 -12.66,0 -19.52,9 -19.52,23.59 v 10.72 c 0,14.58 6.86,23.59 19.52,23.59 14.8,0 20.37,-10.72 20.37,-25.09 z"
       style="fill:#ffffff;stroke-width:0.124975"
       id="path10" />
    <path
       class="cls-1"
       d="m 628.487,330.235 v -5.14 c 0,-29.39 16.73,-50.62 50.83,-50.62 34.1,0 50.84,21.23 50.84,50.62 v 5.14 c 0,29.38 -16.73,50.62 -50.83,50.62 -34.1,0 -50.84,-21.24 -50.84,-50.62 z m 70.78,-7.29 c 0,-13.51 -5.58,-24.23 -20,-24.23 -14.42,0 -19.95,10.72 -19.95,24.23 v 9.44 c 0,13.51 5.58,24.23 19.95,24.23 14.37,0 20,-10.72 20,-24.23 z"
       style="fill:#ffffff;stroke-width:0.124975"
       id="path12" />
    <path
       class="cls-1"
       d="m 740.427,330.235 v -5.14 c 0,-29.39 16.73,-50.62 50.83,-50.62 34.1,0 50.83,21.23 50.83,50.62 v 5.14 c 0,29.38 -16.73,50.62 -50.83,50.62 -34.1,0 -50.83,-21.24 -50.83,-50.62 z m 70.78,-7.29 c 0,-13.51 -5.58,-24.23 -19.95,-24.23 -14.37,0 -19.94,10.72 -19.94,24.23 v 9.44 c 0,13.51 5.57,24.23 19.94,24.23 14.37,0 19.95,-10.72 19.95,-24.23 z"
       style="fill:#ffffff;stroke-width:0.124975"
       id="path14" />
    <path
       class="cls-1"
       d="m 884.547,325.305 30.45,-48.68 h 32.81 l -31.95,50.4 33.24,51.68 h -32.81 l -31.74,-50 v 50 h -30.89 v -153.34 l 30.89,-2.8 z"
       style="fill:#ffffff;stroke-width:0.124975"
       id="path16" />
  </g>
</svg>
