<?xml version="1.0" encoding="UTF-8" standalone="no"?>
<svg
   xmlns:dc="http://purl.org/dc/elements/1.1/"
   xmlns:cc="http://creativecommons.org/ns#"
   xmlns:rdf="http://www.w3.org/1999/02/22-rdf-syntax-ns#"
   xmlns:svg="http://www.w3.org/2000/svg"
   xmlns="http://www.w3.org/2000/svg"
   xmlns:sodipodi="http://sodipodi.sourceforge.net/DTD/sodipodi-0.dtd"
   xmlns:inkscape="http://www.inkscape.org/namespaces/inkscape"
   width="800"
   height="226.94099"
   version="1.1"
   id="svg4"
   sodipodi:docname="instagram.svg"
   inkscape:version="1.0.1 (3bc2e813f5, 2020-09-07)">
  <metadata
     id="metadata10">
    <rdf:RDF>
      <cc:Work
         rdf:about="">
        <dc:format>image/svg+xml</dc:format>
        <dc:type
           rdf:resource="http://purl.org/dc/dcmitype/StillImage" />
        <dc:title></dc:title>
      </cc:Work>
    </rdf:RDF>
  </metadata>
  <defs
     id="defs8" />
  <sodipodi:namedview
     pagecolor="#ffffff"
     bordercolor="#666666"
     borderopacity="1"
     objecttolerance="10"
     gridtolerance="10"
     guidetolerance="10"
     inkscape:pageopacity="0"
     inkscape:pageshadow="2"
     inkscape:window-width="1366"
     inkscape:window-height="705"
     id="namedview6"
     showgrid="false"
     inkscape:pagecheckerboard="true"
     inkscape:zoom="0.64642857"
     inkscape:cx="486.71053"
     inkscape:cy="178.57068"
     inkscape:window-x="-8"
     inkscape:window-y="-8"
     inkscape:window-maximized="1"
     inkscape:current-layer="svg4" />
  <path
     style="fill:#ffffff;stroke-width:1"
     d="M 41.173408,0.79571404 C 24.799471,7.64961 6.7990791,27.01272 1.1139637,51.317612 -6.0857887,82.112868 23.87574,95.135209 26.333198,90.865337 29.225605,85.848197 20.964445,84.151542 19.263951,68.173562 17.066187,47.53663 26.660268,24.47718 38.734737,14.359365 c 2.244429,-1.879786 2.137662,0.736562 2.137662,5.576026 0,8.654087 -0.478179,86.342379 -0.478179,102.556019 0,21.93905 -0.906155,28.86699 -2.533619,35.7127 -1.64898,6.93743 -4.299973,11.62498 -2.291198,13.43062 2.244329,2.01979 11.826794,-2.78453 17.374233,-10.527 6.652181,-9.2859 8.980752,-20.43775 9.39883,-32.54849 0.504946,-14.5991 0.483431,-37.764811 0.504946,-50.978364 C 62.867612,65.462063 63.051551,29.975529 62.634989,8.642331 62.532869,3.4097378 48.021042,-2.0800253 41.1726,0.78935045 M 622.61061,103.4689 c -0.52788,11.40558 -3.0526,20.32057 -6.18603,26.60882 -6.06611,12.17367 -18.65351,15.95374 -23.99792,-1.54636 -2.91251,-9.53933 -3.04857,-25.47094 -0.95464,-38.782784 2.1315,-13.561025 8.08318,-23.802677 17.93847,-22.879046 9.72065,0.913025 14.27062,13.438501 13.20012,36.59887 z m -163.87318,70.76309 c -0.13192,18.95109 -3.11453,35.56725 -9.51055,40.39328 -9.07156,6.84308 -21.26441,1.70998 -18.73968,-12.11882 2.23392,-12.23719 12.79881,-24.73449 28.27588,-40.00419 0,0 0.0323,3.48221 -0.0252,11.72973 z m -2.47756,-70.87349 c -0.55474,10.38821 -3.24786,20.8241 -6.18602,26.72063 -6.06482,12.17357 -18.74372,15.9793 -23.99793,-1.54635 -3.5925,-11.97426 -2.73211,-27.47205 -0.95464,-37.237041 2.30655,-12.669617 7.89742,-24.423482 17.93847,-24.423482 9.76236,0 14.57627,10.710336 13.20012,36.487053 z m -94.93203,-0.15889 c -0.59515,11.00215 -2.74149,20.19936 -6.18592,26.87952 -6.23178,12.08983 -18.56059,15.92405 -23.99793,-1.54635 -3.91977,-12.59749 -2.58533,-29.774563 -0.95474,-39.053595 2.41978,-13.769611 8.47914,-23.531973 17.93857,-22.606928 9.71661,0.949287 14.44022,13.437087 13.20002,36.328163 z m 435.05157,12.85103 c -2.37534,0 -3.45927,2.44836 -4.35604,6.56966 -3.11048,14.32981 -6.37986,17.56544 -10.59589,17.56544 -4.71017,0 -8.94237,-7.09552 -10.03034,-21.29947 -0.85505,-11.16881 -0.71767,-31.73101 0.37575,-52.184921 0.22344,-4.202498 -0.93585,-8.360553 -12.20769,-12.455375 -4.85027,-1.761303 -11.90074,-4.354716 -15.41112,4.119064 -9.91852,23.93995 -13.7993,42.946302 -14.71223,50.667362 -0.0475,0.39959 -0.53727,0.48121 -0.62343,-0.45242 -0.58171,-6.184 -1.88241,-17.421514 -2.04402,-41.031566 -0.0313,-4.606536 -1.00717,-8.527622 -6.09168,-11.737805 -3.29907,-2.083016 -13.31729,-5.767131 -16.92465,-1.384233 -3.12533,3.584523 -6.7448,13.231028 -10.50569,24.665803 -3.05654,9.29378 -5.18541,15.580811 -5.18541,15.580811 0,0 0.0404,-25.076508 0.0768,-34.588467 0.0162,-3.588463 -2.44534,-4.784212 -3.18725,-5.000979 -3.34079,-0.96959 -9.92267,-2.589378 -12.71669,-2.589378 -3.44714,0 -4.29138,1.926856 -4.29138,4.734415 0,0.367573 -0.54404,33.015649 -0.54404,55.844709 0,0.9916 0,2.07351 0.0101,3.2228 -1.90666,10.49246 -8.08995,24.73581 -14.81455,24.73581 -6.73269,0 -9.90913,-5.95472 -9.90913,-33.1705 0,-15.876978 0.47666,-22.780672 0.711,-34.263832 0.13596,-6.614201 0.39859,-11.69336 0.38374,-12.845979 -0.0495,-3.534624 -6.16168,-5.316128 -9.0056,-5.974507 -2.85736,-0.663936 -5.34037,-0.921106 -7.27935,-0.810703 -2.74422,0.154848 -4.68593,1.95524 -4.68593,4.431487 0,1.327668 0.0152,3.8524 0.0152,3.8524 -3.53462,-5.554409 -9.21964,-9.420344 -13.00214,-10.540636 -10.18781,-3.025634 -20.81876,-0.344745 -28.83729,10.875987 -6.37319,8.915399 -10.21476,19.013011 -11.72698,33.520596 -1.10545,10.606097 -0.74464,21.361387 1.22,30.457187 -2.37393,10.26357 -6.78118,14.4685 -11.60711,14.4685 -7.00601,0 -12.08517,-11.43549 -11.49537,-31.21264 0.38909,-13.008202 2.992,-22.137034 5.83723,-35.343819 1.21322,-5.629864 0.22757,-8.57742 -2.24473,-11.402453 -2.26757,-2.59069 -7.09885,-3.914318 -14.04436,-2.286349 -4.94714,1.1607 -12.02043,2.408873 -18.4919,3.367655 0,0 0.39051,-1.55797 0.71101,-4.304821 1.68311,-14.405254 -13.97033,-13.236473 -18.96464,-8.635396 -2.98119,2.746948 -5.01047,5.986727 -5.78066,11.811841 -1.22131,9.243981 6.31793,13.604055 6.31793,13.604055 -2.47361,11.322959 -8.53701,26.114587 -14.79708,36.808767 -3.3528,5.72965 -5.91793,9.97538 -9.22913,14.4887 -0.0121,-1.6806 -0.0212,-3.361 -0.0273,-5.03371 -0.0758,-23.805414 0.24101,-42.541053 0.38101,-49.293939 0.13606,-6.614101 0.40131,-11.558614 0.38646,-12.711233 -0.0374,-2.585338 -1.54716,-3.561594 -4.68724,-4.797748 -2.77655,-1.093326 -6.05946,-1.850089 -9.46479,-2.114027 -4.29815,-0.33525 -6.88753,1.944432 -6.82025,4.640173 0.0131,0.508987 0.0131,3.63432 0.0131,3.63432 -3.53474,-5.55451 -9.21975,-9.420344 -13.00215,-10.540737 -10.18792,-3.02432 -20.81875,-0.343331 -28.83739,10.875987 -6.37178,8.915399 -10.54468,21.426026 -11.72699,33.410193 -1.10141,11.169331 -0.89808,20.661191 0.60332,28.656891 -1.61988,8.00662 -6.27753,16.3793 -11.54386,16.3793 -6.73269,0 -10.56357,-5.95482 -10.56357,-33.1705 0,-15.876978 0.47666,-22.780672 0.711,-34.262619 0.13596,-6.614101 0.39859,-11.694573 0.38374,-12.845879 -0.0495,-3.534624 -6.16178,-5.316128 -9.0056,-5.975921 -2.97584,-0.688077 -5.54502,-0.941206 -7.51773,-0.795855 -2.60281,0.193939 -4.4328,2.524833 -4.4328,4.263206 v 4.005934 c -3.53463,-5.55451 -9.21964,-9.420344 -13.00214,-10.540737 -10.18782,-3.02432 -20.75947,-0.3002 -28.83729,10.875987 -5.26765,7.287429 -9.53216,15.366671 -11.727,33.251305 -0.63424,5.168359 -0.91434,10.008119 -0.87798,14.531829 -2.10059,12.84628 -11.3782,27.65235 -18.96725,27.65235 -4.44088,0 -8.67035,-8.61358 -8.67035,-26.97104 0,-24.45308 1.51353,-59.269017 1.76939,-62.624547 0,0 9.58862,-0.162929 11.44558,-0.184545 4.78279,-0.05253 9.11469,0.06061 15.48505,-0.26525 3.19534,-0.162929 6.2735,-11.630028 2.97585,-13.049211 -1.49464,-0.642319 -12.05821,-1.205144 -16.24586,-1.294033 -3.52119,-0.0798 -13.32396,-0.805247 -13.32396,-0.805247 0,0 0.87929,-23.1092472 1.08393,-25.5504439 0.17373,-2.0346335 -2.45877,-3.0822026 -3.96826,-3.7178552 -3.67058,-1.5525154 -6.9548,-2.295844 -10.8476,-3.09836417 -5.37815,-1.10948792 -7.81804,-0.0242423 -8.2947,4.51492087 -0.71767,6.8889464 -1.08938,27.0666974 -1.08938,27.0666974 -3.94665,0 -17.42818,-0.771511 -21.37613,-0.771511 -3.66796,0 -7.62682,15.774649 -2.55575,15.968485 5.83451,0.226262 16.00223,0.421512 22.74289,0.624845 0,0 -0.3002,35.389566 -0.3002,46.315355 0,1.162417 0.0101,2.281803 0.0121,3.367958 -3.70978,19.336246 -16.77647,29.781236 -16.77647,29.781236 2.80615,-12.79205 -2.92604,-22.39825 -13.25123,-30.529917 -3.80401,-2.996547 -11.31366,-8.66944 -19.71603,-14.885968 0,0 4.86643,-4.796333 9.18206,-14.445565 3.05797,-6.835007 3.18999,-14.657078 -4.31563,-16.381912 -12.40163,-2.851998 -22.62713,6.255916 -25.67711,15.979289 -2.36311,7.532478 -1.10271,13.121937 3.52665,18.928163 0.33798,0.42424 0.70424,0.857772 1.08261,1.294032 -2.79947,5.395824 -6.6452,12.660425 -9.90245,18.294028 -9.04066,15.64132 -15.87021,28.01326 -21.03149,28.01326 -4.12583,0 -4.07058,-12.56073 -4.07058,-24.32106 0,-10.138424 0.74869,-25.380853 1.34655,-41.162167 0.19788,-5.219159 -2.41169,-8.192372 -6.78651,-10.885385 -2.65807,-1.636051 -8.33106,-4.852899 -11.6166,-4.852899 -4.91775,0 -19.10594,0.669187 -32.51201,39.448033 -1.68949,4.887747 -5.00856,13.793858 -5.00856,13.793858 l 0.28566,-46.633145 c 0,-1.093327 -0.58232,-2.150391 -1.915646,-2.873517 -2.259076,-1.226659 -8.292775,-3.735229 -13.657892,-3.735229 -2.556247,0 -3.831895,1.188982 -3.831895,3.558866 L 81.86002,128.89015 c 0,5.5434 0.144544,12.01033 0.692621,14.8388 0.546058,2.832 1.430698,5.13582 2.526348,6.50652 1.094034,1.36808 2.359581,2.4117 4.446134,2.84241 1.942008,0.39979 12.575977,1.76534 13.128707,-2.29847 0.66222,-4.87017 0.68757,-10.13792 6.27147,-29.78406 8.69298,-30.586474 20.02704,-45.510117 25.35519,-50.810083 0.93161,-0.926358 1.99535,-0.98161 1.94413,0.534542 -0.22747,6.705816 -1.02737,23.462073 -1.56585,37.697651 -1.44333,38.09612 5.48704,45.15728 15.39092,45.15728 7.57691,0 18.25766,-7.52853 29.70718,-26.58589 7.13803,-11.87629 14.0686,-23.52126 19.04806,-31.914247 3.47008,3.212304 7.36419,6.669657 11.25569,10.363067 9.04328,8.58308 12.01245,16.73879 10.04246,24.47591 -1.50676,5.91481 -7.18106,12.01043 -17.28009,6.08572 -2.94352,-1.72848 -4.19987,-3.06393 -7.15956,-5.01259 -1.59018,-1.04687 -4.01805,-1.3598 -5.47359,-0.26313 -3.7811,2.85088 -5.9436,6.47703 -7.17834,10.96639 -1.20111,4.36836 3.17371,6.67753 7.70884,8.69732 3.90492,1.73838 12.2979,3.31361 17.65039,3.49301 20.85512,0.69747 37.56158,-10.06954 49.19151,-37.84299 2.0818,23.9858 10.94194,37.55885 26.33558,37.55885 10.29156,0 20.60998,-13.30275 25.12227,-26.38933 1.29535,5.33452 3.21281,9.97338 5.68906,13.89618 11.86164,18.79361 34.87251,14.74859 46.43122,-1.2102 3.57372,-4.93118 4.11764,-6.70319 4.11764,-6.70319 1.68586,15.06899 13.82083,20.33401 20.76897,20.33401 7.78166,0 15.81636,-3.67876 21.44754,-16.35635 0.6599,1.37584 1.38019,2.68977 2.16665,3.93532 11.86155,18.79362 34.87251,14.7486 46.43113,-1.21019 0.54534,-0.74859 1.01796,-1.42767 1.43139,-2.03717 l 0.3393,9.89802 c 0,0 -6.594,6.04896 -10.64166,9.75974 -17.81463,16.34424 -31.3607,28.74446 -32.35716,43.18467 -1.27919,18.41252 13.65385,25.2556 24.95126,26.15237 11.99759,0.95211 22.27167,-5.67542 28.58688,-14.95062 5.55441,-8.16388 9.19015,-25.73489 8.92348,-43.08902 -0.10636,-6.94935 -0.28141,-15.78545 -0.41878,-25.25691 6.26137,-7.27126 13.31588,-16.4614 19.81159,-27.21881 7.07875,-11.72327 14.66506,-27.466603 18.54978,-39.718748 0,0 6.59137,0.05657 13.62558,-0.403936 2.25008,-0.146766 2.89644,0.312321 2.48038,1.961906 -0.50232,1.992816 -8.88711,34.333938 -1.23484,55.878438 5.23805,14.74859 17.04585,19.49372 24.04641,19.49372 8.19501,0 16.03455,-6.18876 20.23571,-15.3787 0.50626,1.02454 1.03545,2.01595 1.61313,2.9312 11.86163,18.79362 34.7918,14.72435 46.43121,-1.21019 2.62706,-3.59513 4.11765,-6.7032 4.11765,-6.7032 2.49787,15.59556 14.62607,20.41341 21.5728,20.41341 7.23631,0 14.10365,-2.96654 19.67563,-16.15029 0.23293,5.8048 0.59919,10.55133 1.17818,12.04779 0.35282,0.91515 2.40897,2.06403 3.90492,2.61888 6.61955,2.45473 13.37113,1.29392 15.86888,0.78898 1.7303,-0.3502 3.07959,-1.73837 3.26403,-5.323 0.48475,-9.41216 0.18717,-25.22599 3.04048,-36.97855 4.78967,-19.724022 9.25742,-27.374984 11.3769,-31.162737 1.18626,-2.12221 2.52473,-2.472308 2.57322,-0.226262 0.1,4.544517 0.32585,17.890089 2.1814,35.820489 1.36261,13.18718 3.18321,20.98168 4.58219,23.44853 3.9925,7.05451 8.92348,7.38855 12.93891,7.38855 2.55433,0 7.89602,-0.70586 7.41804,-5.19512 -0.23293,-2.18818 0.17505,-15.71142 4.89734,-35.14322 3.08351,-12.689618 8.22459,-24.155505 10.07883,-28.347196 0.68402,-1.545849 1.0018,-0.327271 0.99099,-0.0899 -0.3905,8.739036 -1.26705,37.323306 2.29312,52.956536 4.82603,21.17826 18.78685,23.54814 23.65187,23.54814 10.3858,0 18.87978,-7.90035 21.74117,-28.6879 0.68939,-5.0026 -0.3313,-8.8654 -3.38927,-8.8654"
     id="path2" />
</svg>
